<svg width="62" height="78" viewBox="0 0 62 78" fill="none" xmlns="http://www.w3.org/2000/svg">
<path d="M17.6692 18.34C16.7466 18.5004 16.3238 20.4865 16.7293 22.7729C17.1013 24.8726 18.0393 26.4975 18.9117 26.6205C20.0159 29.6125 21.7662 32.521 23.93 34.6426C25.152 35.8494 26.5092 36.801 27.9538 37.3801C28.9489 37.7751 29.9867 37.9966 31.055 37.9966C32.1208 37.9966 33.1586 37.777 34.1525 37.3801C35.6492 36.7804 37.0516 35.782 38.3071 34.5184C40.4176 32.3993 42.1276 29.5358 43.2064 26.5961C44.0421 26.349 44.9151 24.779 45.271 22.7716C45.6548 20.5939 45.2927 18.695 44.4569 18.3793C44.4873 17.847 44.5065 17.3091 44.5028 16.7594C44.4854 8.86704 39.8863 3.65477 32.6378 3.16742C26.3163 2.73874 21.5554 5.26656 19.3866 9.4667C18.655 10.8794 18.2408 13.2725 18.079 15.1925C17.8354 16.1934 17.694 17.233 17.694 18.3088H17.7194C17.7194 18.3188 17.7182 18.3269 17.7157 18.3344C17.6983 18.3356 17.6859 18.3369 17.6692 18.34ZM19.1175 20.7399C19.2074 20.4716 19.3271 20.2631 19.4846 20.1521C19.5497 20.1059 19.6216 20.0716 19.6954 20.0604C19.8671 20.031 20.0463 20.0978 20.2236 20.2394C20.2236 20.2394 20.2236 20.2394 20.2248 20.2394C20.2248 20.2257 20.2261 20.2114 20.2273 20.1989C20.2614 19.8663 20.5249 18.0798 21.6322 16.6633C22.4909 15.5613 23.8618 14.684 26.0305 14.8855C26.0305 14.8855 30.3767 16.4961 34.3292 15.0715C34.7545 15.0634 35.1693 15.0602 35.5512 15.0727C37.1874 15.1351 38.3084 15.9881 39.4833 16.5379C39.4436 15.9956 39.027 15.4409 39.0474 15.0715C39.2353 15.1251 39.4045 15.2069 39.5695 15.2949C40.4145 16.2022 41.2348 17.7228 41.8833 20.2057C41.8833 20.217 41.8833 20.2276 41.8833 20.2357C41.8883 20.2344 41.8883 20.2344 41.892 20.2326C41.892 20.2344 41.892 20.2344 41.892 20.2357L41.9031 20.2238C41.9881 20.1571 42.0749 20.1065 42.1598 20.0791C42.2069 20.0622 42.2516 20.0691 42.2981 20.0647C42.3359 20.0622 42.3805 20.0491 42.4146 20.0547H42.4184C42.4593 20.0616 42.5033 20.0778 42.5417 20.0928C42.9435 20.2856 43.176 21.0469 43.1568 22.0284C43.1518 22.3535 43.1177 22.7042 43.0526 23.0668C43.0371 23.1629 43.0129 23.2459 42.9894 23.3388C42.7761 24.3223 42.3849 25.1279 41.9689 25.4848C41.8759 25.5665 41.7742 25.6246 41.6793 25.6551C41.5894 25.6857 41.5026 25.6976 41.4139 25.682C41.3185 25.6676 41.2249 25.6164 41.1436 25.5384C40.1411 28.6765 38.2303 31.8015 35.8203 33.7022C35.4632 33.9812 35.0961 34.2351 34.7211 34.4579C33.5765 35.1343 32.344 35.5331 31.0606 35.5331C29.3897 35.5331 27.8043 34.8666 26.3914 33.7777C23.9368 31.8864 21.9881 28.7202 20.9738 25.5384C20.8913 25.6152 20.7983 25.6664 20.7016 25.682C20.4945 25.72 20.2732 25.614 20.0636 25.4043C19.6365 24.9743 19.249 24.1095 19.0648 23.0687C19.0524 23 19.0444 22.9351 19.0357 22.8659C19.0363 22.1426 19.0704 21.4369 19.1175 20.7399Z" fill="white"/>
<path d="M5.64552 53.4468C7.9017 57.7481 20.2099 59.28 30.9725 59.28H31.0333C41.7983 59.28 54.1004 57.7481 56.3615 53.4468C56.581 53.0338 56.7112 52.5814 56.8061 52.1159C56.9635 51.309 56.9499 50.4598 56.7174 49.6429C55.8029 46.4593 54.6503 44.2722 53.4624 42.7303C51.1554 39.7307 48.7275 39.2471 47.6933 39.0487C47.5662 39.0256 47.4608 39.005 47.3746 38.9838C47.2698 38.9594 47.1576 38.9438 47.0504 38.9214C47.0783 38.9782 47.1099 39.0299 47.1365 39.0874C47.4137 39.6845 47.6065 40.306 47.7088 40.9381C47.8867 40.9987 48.0523 41.0704 48.2098 41.1559C49.8813 42.0588 50.5143 44.1673 49.6203 45.8565C49.0195 46.9884 47.8564 47.6923 46.5841 47.6923C46.0224 47.6923 45.4613 47.5494 44.9634 47.2805C43.2907 46.3782 42.6577 44.2697 43.5529 42.5811C43.9832 41.7693 44.7173 41.1715 45.5958 40.9069C45.4005 40.1301 44.9882 39.2565 44.3385 38.6038C44.1345 38.5907 43.928 38.5776 43.7315 38.5657C42.7916 38.5095 41.8944 38.4609 41.1653 38.3136C40.3165 40.5744 36.1446 42.2186 31.0066 42.2186C25.8662 42.2186 21.6979 40.5744 20.8492 38.3136C20.1151 38.4609 19.2179 38.5133 18.2793 38.5682C18.1112 38.5782 17.9345 38.5888 17.7609 38.6C17.0349 39.2446 16.5073 40.0883 16.2996 40.8233C16.5749 41.0292 16.7987 41.3082 16.9456 41.6339C18.27 42.2629 19.4399 43.5864 20.3358 45.4721C20.4858 45.7897 20.5051 46.1479 20.3953 46.4749C20.9322 47.8658 21.2391 49.3859 21.2391 50.6626C21.2391 52.4516 21.2391 54.1432 19.3016 54.5775C19.0915 54.7529 18.8292 54.8496 18.5533 54.8496H17.2587C16.609 54.8496 16.0807 54.3179 16.0807 53.6646L16.0851 53.581C16.1285 52.9682 16.6437 52.479 17.2594 52.479H18.5539C18.686 52.479 18.8162 52.5015 18.9408 52.5458C19.0189 52.5227 19.0437 52.5046 19.0437 52.5046C19.1882 52.2475 19.1882 51.1767 19.1882 50.6626C19.1882 49.6273 18.9303 48.3743 18.4777 47.2093C18.2433 47.0752 18.0542 46.8724 17.9376 46.6265C17.1521 44.9729 16.0851 43.9046 15.2171 43.9046C14.3299 43.9046 13.2095 45.0597 12.4283 46.7775C12.3006 47.0577 12.0768 47.2861 11.8009 47.4215C11.3929 48.5347 11.1685 49.6804 11.1685 50.6619C11.1685 51.0937 11.1685 52.2407 11.3328 52.509C11.3346 52.509 11.3712 52.5321 11.4735 52.557C11.6074 52.5052 11.7513 52.4784 11.8957 52.4784H13.1928C13.7917 52.4784 14.292 52.9333 14.3609 53.5261L14.3677 53.5392L14.3702 53.6178C14.3702 54.3179 13.8419 54.8496 13.1934 54.8496H11.8964C11.6391 54.8496 11.3904 54.7635 11.1858 54.6056C10.4456 54.4652 9.9229 54.1364 9.59182 53.6016C9.19192 52.9539 9.11876 52.104 9.11876 50.6626C9.11876 49.3977 9.40892 47.9419 9.93592 46.551C9.85842 46.2534 9.88446 45.9426 10.0128 45.6624C10.5621 44.4544 11.2602 43.4198 12.0315 42.6716C12.4556 42.2604 12.9107 41.9297 13.3881 41.6882C13.5623 41.2782 13.8587 40.9338 14.2245 40.7135C14.328 40.1257 14.5555 39.5198 14.8792 38.9376C14.7998 38.9538 14.7161 38.9651 14.6386 38.9831C14.5512 39.0025 14.4446 39.0231 14.3187 39.048C13.3428 39.2384 11.1245 39.6658 8.93586 42.2361C7.61588 43.7861 6.3083 46.1117 5.28964 49.6373C5.03544 50.5159 5.0342 51.4426 5.24004 52.3062C5.33366 52.6999 5.45828 53.0887 5.64552 53.4468ZM36.5798 51.246C36.5798 51.0301 36.7745 50.856 37.0138 50.856H39.3704V48.4848C39.3704 48.2433 39.5434 48.048 39.7573 48.048H42.0829C42.2962 48.048 42.4698 48.2433 42.4698 48.4848V50.856H44.8264C45.0664 50.856 45.2598 51.0301 45.2598 51.246V53.586C45.2598 53.8019 45.0657 53.976 44.8264 53.976H42.4698V56.3472C42.4698 56.5887 42.2962 56.784 42.0829 56.784H39.7573C39.5434 56.784 39.3704 56.5887 39.3704 56.3472V53.976H37.0138C36.7745 53.976 36.5798 53.8019 36.5798 53.586V51.246Z" fill="white"/>
<path d="M46.5856 46.0618C47.6128 46.0618 48.4456 45.2237 48.4456 44.1898C48.4456 43.1559 47.6128 42.3178 46.5856 42.3178C45.5583 42.3178 44.7256 43.1559 44.7256 44.1898C44.7256 45.2237 45.5583 46.0618 46.5856 46.0618Z" fill="white"/>
</svg>
