<svg width="41" height="67" viewBox="0 0 41 67" fill="none" xmlns="http://www.w3.org/2000/svg">
<g clip-path="url(#clip0_470_41686)">
<path d="M0 15.8815V29.7778C0 31.9694 2.03861 33.7481 4.55556 33.7481V51.6148C4.55556 52.7126 5.57372 53.6 6.83333 53.6H18.2222C19.4818 53.6 20.5 52.7126 20.5 51.6148V21.837V20.3839L25.0988 27.3261C25.2309 27.2228 25.3653 27.1256 25.5088 27.0323C25.2378 26.3315 25.0556 25.595 25.0556 24.8148C25.0556 22.7125 26.1534 20.8484 27.8527 19.5719L22.7778 11.9111H21.0421C19.2017 14.3033 16.0743 15.8815 12.5278 15.8815C9.00406 15.8815 5.89033 14.3231 4.04533 11.9568C1.77211 12.1791 0 13.8407 0 15.8815Z" fill="white"/>
<path d="M12.5279 13.8963C16.9308 13.8963 20.5001 10.7855 20.5001 6.94815C20.5001 3.11079 16.9308 0 12.5279 0C8.12495 0 4.55566 3.11079 4.55566 6.94815C4.55566 10.7855 8.12495 13.8963 12.5279 13.8963Z" fill="white"/>
<path d="M33.0279 31.763C30.3561 31.763 28.0008 30.6016 26.5522 28.8368C25.6388 29.5654 25.0557 30.5996 25.0557 31.763V35.7333V37.7185C25.0557 39.1836 25.9759 40.4501 27.3334 41.139V51.6148C27.3334 52.7126 28.3516 53.6 29.6112 53.6H36.4446C37.7042 53.6 38.7223 52.7126 38.7223 51.6148V41.139C40.0799 40.4501 41.0001 39.1856 41.0001 37.7185V35.7333V31.763C41.0001 30.5996 40.417 29.5654 39.5036 28.8368C38.0549 30.6016 35.6997 31.763 33.0279 31.763Z" fill="white"/>
<path d="M33.0275 29.7778C36.1724 29.7778 38.7219 27.5558 38.7219 24.8148C38.7219 22.0738 36.1724 19.8519 33.0275 19.8519C29.8825 19.8519 27.333 22.0738 27.333 24.8148C27.333 27.5558 29.8825 29.7778 33.0275 29.7778Z" fill="white"/>
</g>
<defs>
<clipPath id="clip0_470_41686">
<rect width="41" height="67" fill="white"/>
</clipPath>
</defs>
</svg>
