<svg width="52" height="60" viewBox="0 0 52 60" fill="none" xmlns="http://www.w3.org/2000/svg">
<g clip-path="url(#clip0_474_41713)">
<path d="M15.0146 24C15.0146 24.5304 15.2429 25.0391 15.6493 25.4142C16.0556 25.7893 16.6067 26 17.1813 26H28.0146V40C28.0095 41.5898 27.323 43.1132 26.1052 44.2374C24.8873 45.3616 23.237 45.9953 21.5146 46H8.51465C6.79074 46 5.13744 45.3679 3.91845 44.2426C2.69947 43.1174 2.01465 41.5913 2.01465 40V8C2.01465 6.4087 2.69947 4.88258 3.91845 3.75736C5.13744 2.63214 6.79074 2 8.51465 2H21.5146C23.237 2.00475 24.8873 2.63841 26.1052 3.7626C27.323 4.8868 28.0095 6.41016 28.0146 8V22H17.1813C16.6067 22 16.0556 22.2107 15.6493 22.5858C15.2429 22.9609 15.0146 23.4696 15.0146 24Z" fill="white"/>
<path d="M49.5145 24.76C49.5681 24.6109 49.6023 24.4565 49.6163 24.3C49.6467 24.2018 49.6684 24.1015 49.6813 24C49.6684 23.8986 49.6467 23.7982 49.6163 23.7C49.5904 23.2772 49.3867 22.8804 49.0486 22.594L36.0486 10.594C35.8488 10.403 35.6097 10.2506 35.3454 10.1458C35.081 10.041 34.7967 9.98581 34.509 9.9835C34.2213 9.9812 33.936 10.0318 33.6697 10.1324C33.4035 10.2329 33.1616 10.3814 32.9581 10.5692C32.7547 10.757 32.5938 10.9803 32.4849 11.2261C32.3759 11.4719 32.3211 11.7352 32.3236 12.0008C32.3261 12.2664 32.3859 12.5288 32.4994 12.7728C32.613 13.0168 32.778 13.2375 32.985 13.422L42.2821 22H28.0146V26H42.2821L32.9806 34.586C32.7737 34.7705 32.6086 34.9912 32.4951 35.2352C32.3815 35.4792 32.3218 35.7416 32.3193 36.0072C32.3168 36.2728 32.3716 36.5361 32.4805 36.7819C32.5895 37.0277 32.7504 37.251 32.9538 37.4388C33.1572 37.6266 33.3991 37.7751 33.6654 37.8757C33.9317 37.9762 34.217 38.0268 34.5047 38.0245C34.7924 38.0222 35.0767 37.967 35.341 37.8622C35.6054 37.7574 35.8444 37.605 36.0443 37.414L49.0443 25.414C49.2463 25.2268 49.4061 25.0045 49.5145 24.76Z" fill="white"/>
</g>
<defs>
<clipPath id="clip0_474_41713">
<rect width="52" height="60" fill="white"/>
</clipPath>
</defs>
</svg>
