<svg width="59" height="74" viewBox="0 0 59 74" fill="none" xmlns="http://www.w3.org/2000/svg">
<path d="M11.7563 34.6817H10.4406V29.2507H29.3637V34.6817H27.9005V31.6613H23.9758V34.6817H21.7905V31.6613H17.8658V34.6817H15.6804V31.6613H11.7557V34.6817H11.7563ZM14.5187 37.6394H18.4434V40.642H20.7456V37.6394H24.6697V40.642H29.3637V35.7272H10.4406V40.6426H14.5193L14.5187 37.6394ZM38.76 15.3298H20.2394V0H38.76V15.3298ZM34.9339 6.38472H30.7561V2.19336H28.2433V6.38531H24.0661V8.90664H28.2439V13.0986H30.7567V8.90664H34.9345L34.9339 6.38472ZM29.3637 47.6477H10.4406V50.32H29.3637V47.6477ZM11.6377 43.6689H15.5624V46.6034H17.7478V43.6689H21.6725V46.6034H23.8578V43.6689H27.7825V46.6034H29.3643V41.6875H10.4406V46.6034H11.6377V43.6689ZM59 21.2723C59 24.2323 56.5999 26.6406 53.6499 26.6406C53.6339 26.6406 53.6186 26.6388 53.6027 26.6388V59.2H6.16668V26.5772C5.9 26.6181 0 27.1325 0 21.2723L5.7525 8.14474H18.7461V9.71176H14.6715L11.42 20.7496H18.8647L19.4812 16.5659H30.5413V20.7496H38.0302L37.4137 16.5659H40.2533V8.14474H53.2463L59 21.2723ZM11.2578 21.7939C11.5127 23.6439 13.098 25.0736 15.0102 25.0736C16.9224 25.0736 18.5036 23.6433 18.759 21.7939H11.2578ZM30.4045 28.2058H9.39929V51.3643H30.4045V28.2058ZM34.3303 25.0736C36.2419 25.0736 37.8255 23.6433 38.0804 21.7939H30.5809C30.8369 23.6433 32.4175 25.0736 34.3303 25.0736ZM48.8803 29.259H33.0642V57.1108H48.8803V29.259ZM49.7512 20.7496H57.1096L52.2309 9.71176H46.4991L49.7512 20.7496ZM57.4005 21.7939H49.901C50.1559 23.6433 51.7377 25.0736 53.6499 25.0736C55.5621 25.0736 57.145 23.6439 57.4005 21.7939ZM35.6537 46.53C36.2472 46.53 36.7275 46.0481 36.7275 45.4526C36.7275 44.8576 36.2472 44.3751 35.6537 44.3751C35.0602 44.3751 34.5799 44.8576 34.5799 45.4526C34.5793 46.0475 35.0602 46.53 35.6537 46.53Z" fill="white"/>
</svg>
