<svg width="42" height="52" viewBox="0 0 42 52" fill="none" xmlns="http://www.w3.org/2000/svg">
<g clip-path="url(#clip0_470_41682)">
<path d="M20.9938 18.7525C25.8566 18.7525 29.8138 14.833 29.8138 10.0165C29.8138 5.2 25.8566 1.274 20.9938 1.274C16.131 1.274 12.1738 5.1935 12.1738 10.01C12.1738 14.8265 16.131 18.746 20.9938 18.746V18.7525Z" fill="white"/>
<path d="M29.564 21.6125H12.4359C7.23184 21.6125 2.99902 25.8115 2.99902 30.979V37.2775C2.99902 38.9545 4.37715 40.326 6.07684 40.326H35.9296C37.6228 40.326 39.0075 38.961 39.0075 37.2775V30.979C39.0075 25.818 34.7746 21.6125 29.5706 21.6125H29.564Z" fill="white"/>
</g>
<defs>
<clipPath id="clip0_470_41682">
<rect width="42" height="52" fill="white"/>
</clipPath>
</defs>
</svg>
